<?xml version="1.0" standalone="no"?>
<!DOCTYPE svg PUBLIC "-//W3C//DTD SVG 20010904//EN"
 "http://www.w3.org/TR/2001/REC-SVG-20010904/DTD/svg10.dtd">
<svg version="1.0" xmlns="http://www.w3.org/2000/svg"
 width="512.000000pt" height="512.000000pt" viewBox="0 0 512.000000 512.000000"
 preserveAspectRatio="xMidYMid meet">

<g transform="translate(0.000000,512.000000) scale(0.100000,-0.100000)"
fill="#000000" stroke="none">
<path d="M1177 4511 c-41 -26 -46 -36 -10 -17 17 9 35 20 38 26 8 13 6 12 -28
-9z"/>
<path d="M1243 4507 c-4 -8 -16 -16 -25 -20 -19 -7 -25 -27 -8 -27 5 0 24 13
42 30 25 22 29 29 16 30 -9 0 -21 -6 -25 -13z"/>
<path d="M1104 4447 c5 -21 2 -26 -16 -29 -21 -3 -20 -5 11 -21 19 -9 42 -17
53 -17 37 0 12 -49 -27 -51 -36 -1 36 -28 78 -29 20 0 37 -4 37 -9 0 -5 11
-12 25 -15 30 -8 125 3 125 14 0 13 -43 20 -56 9 -7 -5 -25 -8 -41 -5 -15 2
-32 5 -36 5 -23 2 9 21 36 21 l32 1 -35 19 c-19 11 -29 19 -21 20 8 0 11 3 8
6 -4 4 -18 -1 -32 -10 -15 -10 -33 -16 -41 -14 -13 3 -12 6 1 26 12 16 27 22
58 23 36 1 38 2 17 9 -14 4 -21 8 -17 9 5 1 1 8 -8 18 -11 11 -19 13 -24 5 -3
-6 -20 -14 -36 -18 -30 -7 -30 -7 -12 14 18 20 18 20 -1 15 -11 -2 -34 3 -52
12 l-33 17 7 -25z"/>
<path d="M1270 4450 c-13 -8 -13 -10 2 -10 9 0 20 5 23 10 8 13 -5 13 -25 0z"/>
<path d="M1318 4393 c6 -2 18 -2 25 0 6 3 1 5 -13 5 -14 0 -19 -2 -12 -5z"/>
<path d="M1065 4278 c-90 -14 -95 -30 -6 -24 57 4 81 1 105 -11 23 -12 54 -16
119 -15 52 1 87 -2 87 -8 0 -6 5 -10 10 -10 6 0 10 7 10 15 0 15 -25 21 -121
29 -30 3 -67 10 -82 15 -18 7 -28 7 -33 0 -4 -6 -10 -5 -17 4 -10 11 -25 12
-72 5z"/>
<path d="M1126 4185 c5 -12 -3 -15 -42 -15 -42 -1 -46 -2 -29 -12 11 -7 38
-15 60 -19 38 -6 38 -7 8 -8 -50 -2 -39 -15 23 -29 41 -10 59 -10 69 -2 8 6
34 9 64 6 52 -5 61 0 39 22 -9 9 -4 12 23 12 57 0 66 16 12 24 -29 4 -49 2
-51 -4 -2 -5 -16 -10 -30 -10 -17 0 -23 3 -14 8 19 12 -51 42 -98 42 -31 0
-38 -3 -34 -15z"/>
<path d="M4414 4141 c11 -12 27 -38 37 -59 10 -20 18 -29 18 -20 1 9 -3 20 -9
23 -5 3 -10 19 -10 36 0 16 -4 29 -9 29 -5 0 -18 3 -28 7 -17 6 -17 5 1 -16z"/>
<path d="M1363 4113 c-7 -2 -13 -9 -13 -14 0 -14 30 -11 46 6 14 13 13 15 -3
14 -10 0 -24 -3 -30 -6z"/>
<path d="M4383 4093 c8 -16 17 -43 21 -62 l6 -35 -23 22 -24 23 21 -46 c12
-25 22 -39 24 -30 2 8 7 15 10 15 6 0 8 29 4 87 -2 22 -26 53 -43 53 -5 0 -3
-12 4 -27z"/>
<path d="M4526 4088 c8 -28 12 -33 20 -25 9 8 -6 47 -17 47 -6 0 -7 -10 -3
-22z"/>
<path d="M1210 4080 c0 -5 7 -10 16 -10 8 0 12 5 9 10 -3 6 -10 10 -16 10 -5
0 -9 -4 -9 -10z"/>
<path d="M4220 4085 c0 -2 10 -10 23 -16 20 -11 21 -11 8 4 -13 16 -31 23 -31
12z"/>
<path d="M1255 4070 c3 -5 8 -10 11 -10 2 0 4 5 4 10 0 6 -5 10 -11 10 -5 0
-7 -4 -4 -10z"/>
<path d="M1330 4061 c-33 -4 -40 -8 -27 -13 28 -12 51 -10 73 7 10 8 15 14 9
13 -5 0 -30 -4 -55 -7z"/>
<path d="M1210 4045 c-11 -13 -10 -14 4 -9 9 3 16 10 16 15 0 13 -6 11 -20 -6z"/>
<path d="M4280 4043 c0 -12 11 -25 49 -58 36 -32 33 -20 -8 32 -25 32 -41 42
-41 26z"/>
<path d="M4471 4005 c0 -31 2 -36 9 -23 6 10 7 25 1 40 -9 20 -10 18 -10 -17z"/>
<path d="M4173 3972 c-1 -15 4 -33 9 -40 6 -7 8 -16 4 -20 -4 -4 -16 3 -26 16
-20 24 -30 28 -30 12 0 -6 16 -24 35 -41 19 -17 35 -39 35 -49 0 -11 5 -22 10
-25 6 -3 10 1 10 9 0 9 5 16 12 16 6 0 3 9 -8 21 -19 21 -30 84 -13 73 17 -10
9 23 -9 39 -25 22 -27 22 -29 -11z"/>
<path d="M1345 3961 c-10 -17 9 -20 30 -5 18 14 18 14 -2 14 -12 0 -24 -4 -28
-9z"/>
<path d="M1276 3937 c-16 -12 -14 -13 18 -9 20 2 36 8 36 13 0 13 -34 11 -54
-4z"/>
<path d="M1454 3931 c20 -22 26 -25 26 -13 0 4 -10 13 -22 21 -23 14 -23 14
-4 -8z"/>
<path d="M4033 3918 c4 -12 2 -41 -3 -65 -11 -47 3 -93 27 -93 8 0 12 4 9 9
-4 5 4 7 16 3 19 -5 20 -6 5 -11 -16 -6 -16 -8 3 -29 11 -12 25 -22 30 -22 6
0 10 -6 10 -12 1 -18 36 -58 51 -58 7 0 21 -7 31 -17 17 -15 18 -15 18 0 0 10
-5 17 -12 17 -14 0 -68 50 -68 62 0 15 18 8 41 -17 13 -13 28 -25 33 -25 4 0
25 -13 46 -30 61 -48 57 -35 -9 28 -77 73 -98 87 -116 72 -10 -9 -16 -7 -23 7
-5 10 -7 24 -5 31 3 6 0 12 -6 12 -6 0 -11 7 -11 16 0 11 8 9 34 -11 19 -15
48 -27 65 -27 17 -1 31 -4 31 -8 0 -4 8 -10 18 -14 9 -3 28 -10 41 -16 21 -9
22 -8 11 5 -10 13 -9 15 9 15 27 0 27 7 -1 31 -45 38 -77 49 -42 15 13 -14 13
-16 0 -16 -15 0 -95 57 -132 94 -35 34 -64 56 -64 48 0 -4 -5 1 -11 11 -14 25
-32 21 -26 -5z m79 -81 c8 -16 7 -17 -11 -7 -17 9 -21 8 -21 -5 0 -8 -7 -15
-15 -15 -10 0 -14 12 -13 46 l1 45 24 -23 c14 -13 29 -31 35 -41z"/>
<path d="M1545 3830 c10 -11 20 -20 23 -20 3 0 -3 9 -13 20 -10 11 -20 20 -23
20 -3 0 3 -9 13 -20z"/>
<path d="M3965 3820 c-16 -11 -25 -20 -19 -20 11 0 64 39 54 40 -3 0 -18 -9
-35 -20z"/>
<path d="M1582 3780 c81 -119 149 -222 163 -251 16 -33 15 -32 -24 11 -22 25
-40 48 -41 51 0 4 -30 33 -67 65 l-68 58 81 -85 c44 -46 90 -99 103 -117 12
-18 27 -29 33 -26 6 4 8 2 5 -3 -4 -6 13 -49 37 -94 24 -46 72 -154 105 -239
34 -85 73 -173 87 -195 35 -56 25 -21 -40 127 -31 71 -56 131 -56 135 1 5 19
-28 41 -72 55 -107 90 -168 95 -162 7 7 -18 60 -146 307 -112 217 -267 469
-308 501 -16 13 -16 13 0 -11z"/>
<path d="M3883 3768 c-23 -13 -50 -30 -60 -38 -10 -8 -32 -24 -48 -34 -107
-68 -271 -232 -397 -396 -60 -78 -239 -345 -269 -401 -11 -23 -11 -23 6 -9 10
8 61 80 113 160 136 209 246 352 355 462 97 97 221 198 245 198 6 0 12 4 12 8
0 4 20 21 45 36 39 25 52 36 42 36 -1 0 -21 -10 -44 -22z"/>
<path d="M3968 3727 c18 -18 32 -37 32 -42 0 -5 10 -19 21 -32 l22 -22 -30 3
c-17 3 -49 16 -71 30 -44 28 -92 43 -92 30 0 -18 17 -34 50 -48 19 -8 48 -28
64 -45 l30 -31 -24 0 c-22 0 -21 -2 13 -26 21 -14 54 -27 73 -29 19 -1 38 -6
42 -10 4 -5 -2 -5 -13 -2 -16 6 -15 3 5 -13 14 -11 35 -29 48 -40 21 -18 23
-18 21 -2 -4 41 0 45 26 28 14 -9 25 -12 25 -6 0 12 -32 45 -51 53 -10 4 -9 6
4 6 9 1 26 -5 37 -11 16 -10 22 -10 28 -1 4 6 23 13 42 16 29 3 26 4 -15 6
-45 2 -53 6 -80 40 -16 21 -52 49 -80 62 -49 24 -69 54 -46 69 16 9 2 40 -15
33 -8 -3 -12 -9 -9 -13 3 -5 1 -11 -4 -15 -5 -3 -13 1 -18 8 -8 14 -45 37 -59
37 -4 0 6 -15 24 -33z m128 -116 c22 -11 47 -28 55 -37 8 -10 10 -15 4 -13 -5
3 -26 12 -46 21 -19 9 -41 24 -49 32 -16 20 -12 20 36 -3z m-40 -79 c-4 -3
-14 2 -24 12 -16 18 -16 18 6 6 13 -6 21 -14 18 -18z"/>
<path d="M3925 3698 c11 -6 30 -20 42 -31 13 -11 25 -18 28 -15 9 9 -54 58
-73 58 -14 -1 -13 -3 3 -12z"/>
<path d="M3856 3617 c11 -31 64 -44 64 -16 0 6 -4 8 -9 4 -5 -3 -16 2 -24 10
-19 18 -38 20 -31 2z"/>
<path d="M3924 3533 c1 -13 -18 -24 -75 -44 -170 -59 -319 -157 -440 -287 -69
-75 -280 -372 -272 -382 7 -7 47 44 101 125 172 263 314 397 526 496 135 62
153 65 226 28 34 -17 64 -28 67 -25 3 3 -16 15 -42 27 -33 15 -52 32 -59 51
-11 31 -35 38 -32 11z"/>
<path d="M4054 3385 c11 -8 25 -15 30 -15 6 0 2 7 -8 15 -11 8 -25 15 -30 15
-6 0 -2 -7 8 -15z"/>
<path d="M2664 3309 c-13 -16 -44 -75 -44 -83 0 -3 6 -3 14 0 12 5 14 -4 11
-45 -4 -50 -24 -107 -25 -69 0 9 5 29 10 44 16 42 5 39 -29 -7 -20 -28 -27
-45 -20 -50 13 -7 -2 -38 -56 -113 -34 -47 -45 -54 -24 -14 6 11 8 22 5 25 -3
4 -13 -10 -21 -30 -17 -41 -18 -50 -7 -44 4 3 7 -8 7 -23 0 -15 -3 -26 -7 -23
-5 2 -8 1 -8 -4 0 -4 -10 -19 -21 -33 l-20 -25 7 25 c4 13 13 30 20 38 8 7 14
18 14 25 0 6 -9 2 -19 -10 -22 -24 -51 -77 -51 -95 0 -15 -39 -68 -40 -54 0
16 42 142 67 195 13 29 22 55 21 57 -3 2 -21 -31 -85 -158 -7 -14 -13 -33 -13
-42 0 -9 -5 -15 -12 -14 -6 2 -17 -14 -23 -36 -6 -21 -21 -47 -33 -56 -15 -13
-22 -29 -22 -53 0 -26 -7 -41 -27 -59 -25 -20 -28 -29 -25 -72 4 -69 -3 -85
-27 -55 -10 13 -26 38 -35 54 -14 25 -16 26 -12 7 4 -20 2 -21 -11 -10 -28 23
5 -31 41 -67 l32 -32 18 24 c9 13 21 21 27 18 12 -8 12 -52 -1 -60 -5 -3 -10
-11 -10 -17 0 -6 7 -5 17 3 15 13 15 12 -1 -18 -9 -18 -26 -38 -37 -44 -12 -6
-17 -14 -12 -18 6 -3 12 -28 15 -54 5 -38 3 -47 -8 -43 -9 3 -14 -2 -14 -14 0
-10 -13 -28 -30 -40 -16 -12 -30 -28 -30 -36 0 -8 -9 -14 -19 -14 -11 0 -27
-7 -35 -16 -9 -8 -21 -12 -27 -9 -7 5 -5 11 4 18 8 7 17 20 21 30 5 17 3 16
-20 -2 -15 -11 -30 -18 -35 -15 -5 3 -9 -1 -10 -8 0 -7 -4 -2 -10 10 -5 13
-18 26 -28 29 -12 3 -17 11 -14 19 7 18 -26 19 -41 0 -12 -15 -156 -29 -156
-15 0 5 8 6 18 2 12 -4 14 -3 7 5 -5 5 -27 15 -49 21 l-38 10 18 -21 c18 -21
18 -21 1 -15 -11 4 -31 10 -45 14 l-27 6 32 -33 c17 -18 49 -43 70 -56 21 -13
34 -23 28 -24 -5 0 -32 14 -60 30 -60 36 -75 38 -49 8 19 -22 19 -23 -1 -8
-11 8 -30 23 -42 34 -39 33 -34 13 8 -37 41 -48 45 -76 8 -57 -13 8 -19 7 -19
-1 0 -6 9 -13 21 -16 15 -4 17 -8 8 -14 -7 -4 -26 -1 -42 8 -16 8 -48 21 -70
29 -39 14 -40 14 -23 -5 9 -10 46 -33 81 -50 36 -18 67 -36 70 -41 8 -13 -46
-2 -115 22 -62 22 -61 22 -115 19 -32 -2 -36 -4 -20 -11 11 -5 33 -9 49 -9 26
-1 140 -50 133 -58 -2 -1 -19 2 -38 8 -48 14 -136 22 -124 11 6 -5 34 -17 63
-27 53 -17 73 -32 27 -21 -18 5 -27 2 -32 -10 -5 -14 -19 -15 -112 -9 -58 3
-115 8 -126 11 -15 4 -14 1 5 -10 33 -19 29 -30 -17 -37 -21 -4 -63 -13 -93
-22 -30 -8 -73 -17 -94 -20 -35 -6 -37 -5 -20 7 10 7 34 18 52 24 18 6 45 20
59 32 14 11 32 20 39 20 8 0 14 5 14 11 0 12 -37 3 -60 -15 -33 -27 -106 -51
-140 -46 -11 1 -10 4 5 11 14 7 3 8 -37 4 -46 -4 -58 -2 -58 9 0 8 6 17 13 19
19 9 -55 -4 -87 -14 -36 -11 -73 -12 -78 -1 -1 4 -32 1 -68 -7 -54 -11 -61
-15 -42 -22 12 -5 22 -13 22 -19 0 -5 7 -10 15 -10 8 0 15 -5 15 -10 0 -7 36
-9 106 -6 94 4 104 3 93 -11 -9 -10 -24 -13 -49 -10 -19 3 -55 2 -80 -3 -25
-4 -37 -8 -27 -9 10 0 15 -5 12 -11 -4 -6 -22 -2 -46 11 l-40 20 11 -21 c6
-12 22 -26 36 -32 18 -8 21 -14 12 -19 -23 -14 9 -34 50 -31 35 2 36 2 14 -11
-28 -16 -11 -37 31 -37 20 0 28 -4 24 -14 -7 -18 23 -42 65 -50 20 -3 45 -14
56 -24 21 -19 38 -66 33 -91 -5 -24 9 -61 23 -61 8 0 16 -7 20 -15 3 -8 14
-15 25 -15 10 0 21 -6 24 -14 3 -7 22 -17 43 -21 55 -10 94 -33 94 -54 0 -10
17 -36 39 -57 38 -38 41 -43 41 -65 0 -6 9 -8 21 -4 14 5 19 3 15 -3 -4 -7 11
-14 36 -20 24 -5 42 -14 40 -20 -1 -7 8 -13 20 -13 52 -3 80 -9 93 -19 15 -12
38 -5 80 24 l30 21 -30 -40 c-22 -28 -25 -37 -12 -32 15 5 16 4 7 -13 -8 -15
-6 -20 12 -26 17 -5 28 0 48 22 14 16 34 36 45 44 17 15 18 14 2 -17 -20 -37
-21 -47 -6 -37 8 4 9 -1 4 -16 -5 -16 -4 -20 5 -15 9 5 10 2 5 -14 -9 -28 1
-26 31 6 14 16 22 21 18 13 -5 -8 -9 -23 -9 -34 -2 -18 -1 -18 16 3 18 22 18
22 13 -16 -2 -21 -2 -33 2 -26 3 7 12 9 20 6 8 -3 14 0 14 6 0 16 29 14 46 -4
9 -8 12 -15 7 -15 -4 0 -1 -4 7 -9 20 -13 30 -4 31 27 0 26 1 26 9 4 5 -12 7
-29 4 -37 -4 -8 -1 -15 5 -15 6 0 16 11 21 24 12 33 27 40 46 22 20 -21 40
-20 48 0 4 9 9 14 12 11 4 -3 -6 -20 -20 -38 -15 -17 -24 -34 -21 -37 3 -4 10
0 15 8 8 13 11 12 23 -4 13 -18 16 -17 50 20 26 28 37 34 37 22 0 -23 33 -41
48 -26 9 9 18 9 36 0 17 -7 27 -8 32 -1 4 6 13 5 27 -4 28 -18 67 -28 67 -17
0 5 33 7 73 6 39 -2 74 0 77 5 10 15 50 -3 65 -30 l14 -26 1 30 c1 28 2 29 10
7 12 -30 30 -28 30 3 0 15 6 25 14 25 8 0 16 6 18 12 5 15 30 -6 41 -34 8 -22
27 -24 27 -2 0 9 5 12 12 8 6 -4 18 2 26 12 14 18 14 18 9 -4 -4 -17 -2 -22 8
-18 8 3 16 0 19 -7 2 -7 8 -2 12 11 7 23 7 23 21 2 19 -27 31 -25 39 5 6 24 7
24 20 8 13 -17 13 -17 14 0 0 21 18 23 26 2 9 -22 27 -18 21 4 -7 27 16 33 44
13 25 -17 59 -26 59 -16 0 3 -10 20 -22 37 -15 22 -17 28 -5 18 15 -12 17 -11
18 5 1 11 1 24 0 29 -1 6 13 -7 30 -28 39 -47 58 -48 28 -1 l-22 36 22 -12
c13 -6 25 -9 28 -6 3 3 19 -6 35 -19 37 -32 59 -33 30 -2 -28 30 -28 34 3 39
16 4 36 -3 57 -18 38 -28 48 -30 48 -8 0 13 6 15 28 9 26 -6 26 -6 7 10 -18
15 -17 15 9 0 22 -13 30 -14 36 -5 4 7 16 9 29 5 21 -6 30 8 11 20 -23 14 -7
23 33 20 23 -2 49 0 57 5 13 8 12 11 -5 24 -19 15 -18 15 15 9 32 -6 34 -5 21
10 -12 15 -11 17 5 17 14 0 10 6 -15 21 -18 11 -31 23 -28 26 3 3 22 -5 42
-17 39 -24 77 -21 55 5 -10 13 -8 15 14 15 14 0 26 4 26 9 0 5 12 9 27 9 14 0
32 7 38 16 7 9 23 16 36 16 l24 1 -25 14 -25 14 25 2 c17 1 12 4 -17 11 -59
13 -56 32 3 25 49 -5 84 0 84 13 0 5 -15 18 -32 30 -31 21 -19 23 25 5 13 -6
16 -3 11 9 -4 11 0 16 12 17 12 0 4 8 -21 20 l-40 19 48 -5 c55 -5 59 0 15 18
-33 14 -32 14 20 9 59 -5 68 3 20 17 -22 6 -26 10 -13 10 11 1 31 -6 43 -15
12 -8 28 -14 35 -11 6 2 -7 16 -31 32 -53 35 -54 42 -2 15 22 -11 40 -17 40
-12 0 5 -15 16 -32 25 l-33 17 50 -4 c44 -4 48 -3 30 10 -16 12 -45 19 -67 15
-19 -2 -141 28 -151 38 -6 6 -18 11 -26 11 -21 0 15 -37 56 -57 47 -22 33 -29
-17 -9 -45 18 -86 21 -95 7 -3 -5 4 -12 15 -16 11 -3 20 -10 20 -15 0 -5 -14
-4 -31 2 -18 6 -34 7 -38 2 -23 -32 -71 -31 -151 2 -8 4 -31 9 -50 11 -55 6
-152 33 -172 48 -16 10 -4 12 73 7 66 -3 90 -2 85 6 -4 6 -23 14 -44 18 -34 7
-35 8 -12 14 15 4 33 1 45 -7 22 -15 59 -18 50 -4 -3 5 -19 12 -35 16 -17 4
-30 11 -30 16 0 5 -35 25 -77 45 -43 19 -80 38 -83 43 -3 4 -14 13 -25 20 -19
12 -18 12 5 7 68 -16 100 -17 140 -5 l45 13 -45 7 c-25 4 -66 8 -92 8 -44 1
-80 20 -41 22 11 0 2 8 -22 20 -35 16 -37 19 -15 20 14 0 19 3 11 6 -10 4 -8
9 10 19 l24 13 -25 2 c-14 1 2 7 35 14 l60 12 -75 3 c-61 2 -68 4 -35 9 l40 6
-49 20 c-47 20 -48 20 -20 26 26 5 27 7 9 13 -11 4 -49 21 -83 37 -48 22 -62
34 -58 46 8 20 -11 43 -34 43 -10 0 -27 -11 -38 -25 -17 -21 -21 -23 -32 -10
-10 12 -9 15 6 16 11 0 14 3 7 6 -7 2 -13 12 -13 21 -1 15 -3 15 -15 -2 -13
-18 -15 -18 -21 -2 -5 13 -9 14 -14 6 -12 -20 -32 -1 -24 23 6 20 5 21 -11 7
-16 -13 -17 -12 -13 5 2 12 -6 29 -19 41 -23 21 -32 51 -13 39 6 -3 10 -1 10
5 0 6 -8 9 -18 6 -21 -7 -61 18 -49 30 4 5 13 2 18 -6 9 -12 10 -11 6 5 -3 11
-8 29 -12 40 -8 20 -8 20 8 0 21 -28 27 -18 17 33 -4 23 -5 41 -3 38 3 -3 11
1 19 8 9 9 11 28 8 56 -4 30 -2 40 7 35 8 -6 10 3 7 31 -3 29 1 47 19 73 24
36 26 34 23 -14 -3 -40 9 -26 32 37 22 64 22 72 0 33 l-16 -30 -7 35 c-6 35
-6 35 -8 5 -2 -16 -5 -24 -8 -17 -4 10 -8 10 -19 1 -12 -10 -14 0 -13 62 1 41
4 64 6 52 2 -13 9 -23 15 -23 16 0 0 218 -18 245 -13 21 -11 25 32 64 25 24
43 45 41 48 -3 2 -32 -19 -65 -49 -54 -47 -60 -57 -62 -93 l-1 -40 -16 39
c-13 31 -14 44 -5 70 14 37 16 202 4 210 -5 3 -14 -16 -21 -42 -12 -45 -13
-46 -23 -22 -7 17 -6 42 3 78 10 43 10 55 0 62 -10 6 -10 12 -2 28 13 25 14
32 2 32 -5 0 -13 -9 -16 -20 -4 -11 -10 -18 -15 -15 -5 3 -7 12 -3 20 3 8 0
15 -6 15 -17 0 -13 38 5 48 9 5 14 17 13 27 -3 15 -6 16 -15 4z m19 -200 c-6
-6 -7 3 -4 23 4 28 6 29 9 9 2 -13 0 -27 -5 -32z m123 -337 c-8 -8 -27 68 -20
80 5 8 11 -3 16 -31 4 -25 6 -46 4 -49z m-22 -8 c3 -8 2 -12 -4 -9 -6 3 -10
10 -10 16 0 14 7 11 14 -7z m35 -71 c-1 -38 -1 -38 -9 -9 -8 27 -6 46 6 46 2
0 4 -17 3 -37z m-509 -21 c0 -5 -7 -17 -15 -28 -14 -18 -14 -17 -4 9 12 27 19
34 19 19z m-74 -170 c-15 -15 -15 -15 -4 10 7 15 15 23 17 17 2 -6 -4 -18 -13
-27z m550 -48 c-4 -9 -9 -15 -11 -12 -3 3 -3 13 1 22 4 9 9 15 11 12 3 -3 3
-13 -1 -22z m-20 -171 c-10 -10 -19 5 -10 18 6 11 8 11 12 0 2 -7 1 -15 -2
-18z m-13 -40 c5 -26 4 -26 -9 -8 -16 22 -18 35 -5 35 5 0 11 -12 14 -27z
m-885 -153 c8 0 13 -3 9 -6 -3 -4 -23 -3 -44 1 -35 7 -36 8 -13 15 14 3 27 3
28 -2 2 -4 11 -8 20 -8z m88 13 c-11 -11 -48 -14 -41 -3 3 5 16 10 27 10 12 0
18 -3 14 -7z m37 -54 c-5 -5 -28 -12 -49 -14 -32 -3 -35 -3 -16 5 13 6 28 8
32 5 5 -3 11 -1 15 5 3 5 11 10 18 10 8 0 8 -3 0 -11z m-617 -264 l27 -25 -30
0 c-17 0 -44 3 -61 6 -27 6 -29 8 -19 25 16 26 51 24 83 -6z m1734 -5 c0 -5
-4 -10 -9 -10 -6 0 -13 5 -16 10 -3 6 1 10 9 10 9 0 16 -4 16 -10z m-1727 -47
c-7 -2 -19 -2 -25 0 -7 3 -2 5 12 5 14 0 19 -2 13 -5z m1784 1 c-3 -3 -12 -4
-19 -1 -8 3 -5 6 6 6 11 1 17 -2 13 -5z m-2352 -54 c-11 -5 -27 -9 -35 -9 -9
0 -8 4 5 9 11 5 27 9 35 9 9 0 8 -4 -5 -9z m1519 -116 c4 -9 13 -14 21 -10 8
3 15 1 15 -4 0 -5 24 -14 54 -21 47 -10 60 -9 96 5 44 18 110 13 110 -8 0 -6
-7 -24 -15 -40 -15 -27 -14 -28 7 -23 22 6 22 6 -2 -13 -14 -11 -30 -20 -37
-20 -11 0 -64 -46 -156 -132 -31 -31 -37 -33 -37 -18 0 6 -11 28 -25 50 -14
22 -25 52 -25 67 0 21 -15 42 -62 85 l-63 58 24 20 c28 24 86 27 95 4z m983
-49 c-7 -7 -18 -10 -24 -8 -21 8 -14 21 11 21 19 0 22 -3 13 -13z m86 -155
c31 -6 57 -14 57 -16 0 -6 -152 4 -158 11 -3 3 6 5 19 5 20 0 21 2 9 11 -13
10 -13 10 0 6 9 -3 41 -10 73 -17z m274 4 c-3 -3 -12 -4 -19 -1 -8 3 -5 6 6 6
11 1 17 -2 13 -5z m-166 -34 c5 0 4 -6 -3 -14 -15 -16 -32 -11 -22 6 5 8 1 9
-10 5 -11 -4 -15 -3 -11 4 4 6 14 8 22 5 8 -3 19 -6 24 -6z m-150 -15 c-1 -15
-24 -12 -29 3 -3 9 2 13 12 10 10 -1 17 -7 17 -13z m77 -2 c2 -7 -1 -13 -7
-13 -6 0 -11 6 -11 13 0 9 -2 9 -9 -1 -7 -11 -9 -11 -14 1 -4 10 1 14 16 13
11 -1 22 -7 25 -13z m-73 -32 c-3 -6 2 -14 11 -19 22 -12 5 -21 -29 -15 -17 3
-27 11 -26 22 0 10 2 11 6 4 7 -18 23 -16 23 2 0 8 5 15 11 15 5 0 8 -4 4 -9z
m51 -7 c18 -14 18 -14 -6 -3 -31 14 -36 19 -24 19 6 0 19 -7 30 -16z m-119
-10 c-3 -3 -12 -4 -19 -1 -8 3 -5 6 6 6 11 1 17 -2 13 -5z m112 -66 c13 -5 22
-11 19 -13 -3 -3 -25 4 -49 15 -41 19 -22 18 30 -2z m-68 -14 c46 -23 28 -27
-22 -4 -24 11 -36 20 -26 20 10 0 32 -7 48 -16z m-61 -25 c19 -11 28 -18 18
-15 -22 6 -30 -4 -16 -22 7 -8 -12 -2 -42 13 -52 27 -53 29 -30 36 35 10 31
10 70 -12z m-920 -40 c0 -6 -33 -18 -60 -23 -3 -1 -11 -5 -19 -10 -11 -7 -13
-5 -8 8 4 10 7 21 7 26 0 12 49 18 54 6 2 -6 5 -2 5 9 1 17 3 17 11 5 5 -8 10
-18 10 -21z m-100 11 c0 -5 -5 -10 -11 -10 -5 0 -7 5 -4 10 3 6 8 10 11 10 2
0 4 -4 4 -10z m941 -17 c23 -15 36 -29 30 -31 -6 -2 -9 -8 -5 -13 3 -5 -10 -2
-28 7 -31 14 -67 64 -47 64 5 0 28 -12 50 -27z m-781 -13 c0 -5 -5 -10 -11
-10 -5 0 -7 5 -4 10 3 6 8 10 11 10 2 0 4 -4 4 -10z m100 -25 c0 -8 -4 -15 -9
-15 -13 0 -22 16 -14 24 11 11 23 6 23 -9z m47 -41 c-9 -9 -28 6 -21 18 4 6
10 6 17 -1 6 -6 8 -13 4 -17z m568 14 c14 -6 25 -17 25 -24 0 -10 -10 -7 -35
7 -50 30 -43 41 10 17z m-493 -46 c-4 -11 -6 -11 -13 0 -5 7 -9 22 -9 32 0 19
0 19 14 1 8 -11 11 -25 8 -33z m463 10 c17 -15 26 -24 21 -19 -22 16 -28 6
-10 -16 10 -13 3 -7 -16 12 -19 20 -39 35 -43 33 -5 -1 -6 2 -2 8 9 15 17 12
50 -18z m-65 -17 c25 -30 3 -25 -26 6 -22 24 -24 29 -8 21 11 -6 27 -18 34
-27z m-63 13 c4 -7 8 -25 8 -40 l0 -28 -17 23 c-19 24 -24 57 -9 57 6 0 13 -6
18 -12z m-883 -160 c-10 -20 -19 -28 -22 -20 -2 7 4 22 14 33 25 27 27 24 8
-13z"/>
<path d="M3246 3173 c-6 -14 -5 -15 5 -6 7 7 10 15 7 18 -3 3 -9 -2 -12 -12z"/>
<path d="M2036 3110 c7 -47 41 -136 49 -128 4 4 -43 159 -51 167 -3 3 -2 -15
2 -39z"/>
<path d="M2526 3101 c-15 -28 -23 -51 -18 -51 10 0 55 91 48 97 -3 3 -16 -18
-30 -46z"/>
<path d="M3152 3022 c-84 -133 -104 -171 -84 -158 16 10 179 286 169 286 -3 0
-41 -57 -85 -128z"/>
<path d="M2442 3079 c-7 -11 -17 -32 -22 -45 -13 -34 6 -22 26 17 18 36 15 59
-4 28z"/>
<path d="M2765 2978 c-4 -47 -5 -92 -3 -100 8 -23 25 124 18 156 -5 24 -9 11
-15 -56z"/>
<path d="M2367 2945 c-19 -39 -23 -65 -8 -49 14 14 41 84 32 84 -4 0 -15 -16
-24 -35z"/>
<path d="M2090 2951 c0 -6 4 -13 10 -16 6 -3 7 1 4 9 -7 18 -14 21 -14 7z"/>
<path d="M2255 2883 c-3 -27 -11 -59 -16 -72 -7 -16 -7 -27 1 -35 14 -14 12
-52 -6 -101 l-14 -40 4 44 c3 28 1 40 -5 34 -6 -6 -12 -37 -14 -69 -3 -32 -2
-50 1 -40 5 15 8 16 14 5 6 -9 12 2 21 34 7 29 17 47 26 47 14 0 37 44 48 96
l7 29 -21 -25 -21 -25 0 24 c0 24 0 24 -16 5 -15 -19 -16 -19 -9 1 10 27 24
96 25 118 1 38 -19 14 -25 -30z"/>
<path d="M1965 2866 c10 -14 19 -26 22 -26 7 0 -17 39 -28 46 -6 3 -3 -5 6
-20z"/>
<path d="M1146 2818 c-32 -18 -54 -34 -48 -36 12 -4 98 44 108 59 8 13 6 12
-60 -23z"/>
<path d="M2155 2810 c-4 -23 -5 -44 -2 -46 3 -3 8 13 12 36 4 23 5 44 2 46 -3
3 -8 -13 -12 -36z"/>
<path d="M3595 2840 c-8 -13 5 -13 25 0 13 8 13 10 -2 10 -9 0 -20 -4 -23 -10z"/>
<path d="M1558 2773 c7 -3 16 -2 19 1 4 3 -2 6 -13 5 -11 0 -14 -3 -6 -6z"/>
<path d="M2866 2735 c-10 -54 -10 -56 -2 -87 5 -16 12 -26 16 -23 5 3 11 -1
14 -7 3 -7 3 1 0 17 -4 17 -10 55 -13 85 l-7 55 -8 -40z"/>
<path d="M2176 2729 c-10 -52 -14 -109 -6 -109 9 0 25 119 17 127 -4 3 -8 -5
-11 -18z"/>
<path d="M1740 2704 c0 -6 9 -15 48 -48 32 -27 28 0 -4 29 -26 24 -44 32 -44
19z"/>
<path d="M2952 2679 c-5 -13 -12 -37 -16 -54 -11 -45 10 -18 23 29 12 44 7 62
-7 25z"/>
<path d="M3708 2693 c6 -2 18 -2 25 0 6 3 1 5 -13 5 -14 0 -19 -2 -12 -5z"/>
<path d="M3563 2683 c9 -2 23 -2 30 0 6 3 -1 5 -18 5 -16 0 -22 -2 -12 -5z"/>
<path d="M3405 2670 c3 -5 18 -10 32 -10 32 0 28 5 -10 14 -19 4 -26 3 -22 -4z"/>
<path d="M3145 2650 c-3 -6 1 -7 9 -4 18 7 21 14 7 14 -6 0 -13 -4 -16 -10z"/>
<path d="M1542 2627 c-15 -17 1 -76 35 -135 36 -63 20 -64 -20 -1 -47 75 -57
95 -50 103 3 3 1 6 -5 6 -19 0 -5 -71 19 -97 13 -12 20 -26 17 -29 -12 -11
126 -123 157 -128 9 -1 21 -8 27 -14 14 -14 38 -16 38 -3 0 8 -54 32 -62 27
-1 -1 -16 12 -33 28 -16 16 -25 27 -20 24 6 -2 37 -17 70 -33 40 -20 80 -30
123 -33 34 -2 62 -9 62 -14 0 -12 120 -1 134 12 4 4 5 22 1 40 -6 27 -11 31
-35 28 -19 -2 -38 7 -63 29 -52 45 -88 51 -130 19 -19 -14 -47 -26 -63 -26
-17 0 -35 -5 -41 -11 -8 -8 -15 -5 -24 12 -7 13 -12 27 -11 32 1 4 -1 6 -5 5
-5 -2 -8 2 -8 7 0 6 3 9 8 8 16 -6 5 17 -23 47 -23 25 -28 36 -20 50 14 26 13
29 -9 23 -11 -3 -27 4 -38 16 -17 18 -22 19 -31 8z"/>
<path d="M3388 2633 c7 -3 16 -2 19 1 4 3 -2 6 -13 5 -11 0 -14 -3 -6 -6z"/>
<path d="M2967 2611 c-4 -17 -3 -21 5 -13 5 5 8 16 6 23 -3 8 -7 3 -11 -10z"/>
<path d="M3818 2623 c7 -3 16 -2 19 1 4 3 -2 6 -13 5 -11 0 -14 -3 -6 -6z"/>
<path d="M3800 2590 c0 -5 5 -10 10 -10 6 0 10 5 10 10 0 6 -4 10 -10 10 -5 0
-10 -4 -10 -10z"/>
<path d="M2131 2574 c0 -11 3 -14 6 -6 3 7 2 16 -1 19 -3 4 -6 -2 -5 -13z"/>
<path d="M2170 2535 c0 -27 3 -45 7 -42 7 8 6 77 -2 85 -3 3 -5 -16 -5 -43z"/>
<path d="M3375 2570 c-16 -7 -11 -9 20 -9 29 -1 36 2 25 9 -17 11 -19 11 -45
0z"/>
<path d="M3430 2550 c-17 -11 -16 -11 23 -16 29 -3 37 10 11 20 -19 7 -16 8
-34 -4z"/>
<path d="M3508 2533 c7 -3 16 -2 19 1 4 3 -2 6 -13 5 -11 0 -14 -3 -6 -6z"/>
<path d="M3430 2510 c-12 -8 -9 -10 13 -10 15 0 27 5 27 10 0 13 -20 13 -40 0z"/>
<path d="M2931 2479 c-20 -33 -26 -49 -17 -49 9 0 48 71 43 77 -3 3 -15 -10
-26 -28z"/>
<path d="M3368 2483 c6 -2 18 -2 25 0 6 3 1 5 -13 5 -14 0 -19 -2 -12 -5z"/>
<path d="M2886 2464 c-9 -23 -7 -36 3 -30 12 8 21 46 11 46 -4 0 -11 -7 -14
-16z"/>
<path d="M2821 2388 c-1 -21 4 -38 9 -38 12 0 12 27 0 55 -7 16 -9 13 -9 -17z"/>
<path d="M2206 2394 c-4 -9 -4 -19 -1 -22 2 -3 7 3 11 12 4 9 4 19 1 22 -2 3
-7 -3 -11 -12z"/>
<path d="M3680 2360 c0 -5 5 -10 10 -10 6 0 10 5 10 10 0 6 -4 10 -10 10 -5 0
-10 -4 -10 -10z"/>
<path d="M2192 2340 c-14 -23 -5 -26 21 -6 20 16 22 26 4 26 -7 0 -18 -9 -25
-20z"/>
<path d="M3400 2345 c7 -9 11 -17 9 -18 -2 -1 -12 -9 -22 -16 -15 -12 -17 -12
-11 5 6 17 6 18 -7 2 -17 -20 -84 -58 -104 -58 -9 0 -24 -5 -35 -12 -16 -10
-27 -8 -65 10 -48 23 -70 28 -61 13 3 -5 -12 -11 -33 -15 -41 -6 -53 -21 -44
-55 4 -16 11 -20 25 -15 14 4 19 2 16 -7 -7 -21 41 -41 115 -47 55 -4 67 -8
62 -19 -4 -11 -1 -13 11 -9 8 3 18 6 20 6 2 0 4 6 4 13 0 7 15 21 33 31 65 34
80 45 118 82 21 21 39 45 39 54 0 9 5 21 12 28 7 7 9 12 5 12 -4 0 -24 -19
-45 -42 -44 -49 -127 -105 -168 -113 l-29 -5 30 11 c45 18 86 47 128 92 42 47
44 54 20 73 -24 18 -38 17 -23 -1z"/>
<path d="M2815 2331 c-8 -14 3 -51 16 -51 5 0 6 12 3 28 -8 34 -10 36 -19 23z"/>
<path d="M1195 2300 c-3 -5 -1 -10 4 -10 6 0 11 5 11 10 0 6 -2 10 -4 10 -3 0
-8 -4 -11 -10z"/>
<path d="M3683 2273 c9 -2 23 -2 30 0 6 3 -1 5 -18 5 -16 0 -22 -2 -12 -5z"/>
<path d="M2035 2260 c3 -5 8 -10 11 -10 2 0 4 5 4 10 0 6 -5 10 -11 10 -5 0
-7 -4 -4 -10z"/>
<path d="M2955 2250 c-11 -19 6 -50 31 -56 35 -9 39 0 18 35 -19 31 -38 39
-49 21z"/>
<path d="M1950 2240 c0 -5 4 -10 9 -10 6 0 13 5 16 10 3 6 -1 10 -9 10 -9 0
-16 -4 -16 -10z"/>
<path d="M2068 2229 c-11 -11 -13 -21 -7 -25 15 -9 39 3 39 20 0 23 -13 25
-32 5z"/>
<path d="M2830 2240 c0 -5 5 -10 11 -10 5 0 7 5 4 10 -3 6 -8 10 -11 10 -2 0
-4 -4 -4 -10z"/>
<path d="M3650 2240 c0 -13 20 -13 40 0 12 8 9 10 -12 10 -16 0 -28 -4 -28
-10z"/>
<path d="M525 2227 c39 -13 361 -15 374 -2 7 7 -59 10 -197 11 -154 1 -199 -1
-177 -9z"/>
<path d="M2797 2234 c-4 -4 -7 -14 -7 -23 0 -11 3 -12 11 -4 6 6 10 16 7 23
-2 6 -7 8 -11 4z"/>
<path d="M3550 2230 c0 -5 4 -10 9 -10 6 0 13 5 16 10 3 6 -1 10 -9 10 -9 0
-16 -4 -16 -10z"/>
<path d="M1704 2186 c11 -9 27 -16 35 -16 21 0 2 16 -29 24 -24 7 -24 6 -6 -8z"/>
<path d="M615 2180 c-16 -7 -17 -9 -3 -9 9 -1 20 4 23 9 7 11 7 11 -20 0z"/>
<path d="M1298 2173 c7 -3 16 -2 19 1 4 3 -2 6 -13 5 -11 0 -14 -3 -6 -6z"/>
<path d="M1845 2150 c-18 -8 -17 -9 8 -9 15 -1 27 4 27 9 0 12 -8 12 -35 0z"/>
<path d="M3193 2113 c4 -3 2 -12 -4 -20 -9 -10 -8 -13 5 -13 9 0 16 8 16 20 0
11 -5 20 -12 20 -6 0 -8 -3 -5 -7z"/>
<path d="M3116 2092 c-3 -6 -1 -14 5 -17 15 -10 25 3 12 16 -7 7 -13 7 -17 1z"/>
<path d="M1530 2082 c1 -16 76 -59 93 -53 14 5 5 13 -38 34 -30 15 -55 23 -55
19z"/>
<path d="M2880 2067 c0 -18 28 -42 37 -33 9 8 -9 38 -25 44 -7 2 -12 -3 -12
-11z"/>
<path d="M768 2063 c7 -3 16 -2 19 1 4 3 -2 6 -13 5 -11 0 -14 -3 -6 -6z"/>
<path d="M660 2050 l-35 -7 40 -1 c22 0 51 4 65 8 24 8 24 8 -5 8 -16 0 -46
-4 -65 -8z"/>
<path d="M2850 2050 c0 -5 5 -10 11 -10 5 0 7 5 4 10 -3 6 -8 10 -11 10 -2 0
-4 -4 -4 -10z"/>
<path d="M598 2003 c7 -3 16 -2 19 1 4 3 -2 6 -13 5 -11 0 -14 -3 -6 -6z"/>
<path d="M1105 1985 c-23 -11 -25 -14 -10 -14 11 0 31 6 45 14 32 18 5 18 -35
0z"/>
<path d="M853 1973 c-18 -2 -33 -8 -33 -12 0 -4 16 -5 35 -3 19 2 35 8 35 13
0 5 -1 8 -2 7 -2 0 -18 -3 -35 -5z"/>
<path d="M3585 1970 c-18 -8 -18 -9 5 -8 14 0 36 4 50 8 24 8 24 8 -5 8 -16 0
-39 -3 -50 -8z"/>
<path d="M840 1931 c-22 -4 -29 -9 -20 -12 21 -9 81 1 74 12 -3 5 -8 8 -12 8
-4 -1 -23 -4 -42 -8z"/>
<path d="M710 1923 c-37 -3 -60 -10 -72 -23 -23 -24 -23 -30 0 -30 16 -1 16
-1 0 -14 -24 -17 -13 -26 34 -26 27 0 38 4 38 15 0 11 11 15 43 15 31 0 38 3
27 10 -8 5 -30 10 -47 10 -18 0 -33 5 -33 11 0 6 -9 9 -20 6 -11 -3 -18 -1
-14 4 3 5 34 9 70 9 36 0 64 4 64 10 0 6 -8 9 -17 8 -10 -1 -43 -3 -73 -5z
m-23 -59 c-3 -3 -12 -4 -19 -1 -8 3 -5 6 6 6 11 1 17 -2 13 -5z"/>
<path d="M1115 1921 c-17 -8 -14 -10 15 -10 19 -1 73 -13 119 -28 59 -18 88
-23 100 -16 15 9 40 6 100 -13 17 -5 23 -4 19 6 -10 31 -307 82 -353 61z"/>
<path d="M3300 1921 c0 -5 7 -11 14 -14 10 -4 13 -1 9 9 -6 15 -23 19 -23 5z"/>
<path d="M4040 1892 c0 -13 96 -29 240 -42 244 -22 326 -35 485 -76 17 -4 17
-3 4 5 -37 24 -220 61 -366 76 -140 13 -212 22 -330 41 -18 3 -33 1 -33 -4z"/>
<path d="M850 1876 c15 -9 31 -11 40 -6 9 5 22 5 31 -1 7 -5 21 -9 29 -8 8 0
0 6 -19 14 -18 8 -50 15 -70 15 -36 -1 -36 -1 -11 -14z"/>
<path d="M3203 1823 c4 -3 19 -8 34 -9 21 -2 24 -1 13 6 -17 11 -57 14 -47 3z"/>
<path d="M3320 1800 c0 -5 5 -10 10 -10 6 0 10 5 10 10 0 6 -4 10 -10 10 -5 0
-10 -4 -10 -10z"/>
<path d="M3396 1782 c-3 -5 8 -6 25 -4 16 2 29 6 29 8 0 8 -49 4 -54 -4z"/>
<path d="M3458 1763 c7 -3 16 -2 19 1 4 3 -2 6 -13 5 -11 0 -14 -3 -6 -6z"/>
<path d="M3240 1710 c38 -12 109 -12 90 0 -8 5 -37 9 -65 9 -40 -1 -45 -3 -25
-9z"/>
<path d="M3370 1696 c0 -2 7 -6 15 -10 8 -3 15 -1 15 4 0 6 -7 10 -15 10 -8 0
-15 -2 -15 -4z"/>
<path d="M3310 1590 c0 -4 27 -8 60 -9 37 -1 60 2 60 9 0 6 -24 10 -60 9 -33
-1 -60 -5 -60 -9z"/>
<path d="M3345 1555 c40 -19 67 -18 35 0 -14 8 -34 14 -45 14 -15 -1 -13 -4
10 -14z"/>
<path d="M3745 1549 c4 -5 12 -9 19 -9 7 0 25 -13 41 -30 16 -16 23 -30 17
-30 -7 0 -12 -4 -12 -10 0 -5 7 -10 16 -10 8 0 25 -5 37 -12 24 -13 89 -19 82
-8 -3 4 -19 10 -36 14 -18 3 -29 9 -26 12 10 10 100 -16 121 -34 11 -9 16 -12
13 -6 -4 7 3 14 19 18 14 4 24 12 22 17 -4 11 -55 18 -148 23 -48 2 -80 13
-80 27 0 4 8 6 18 4 9 -3 1 2 -18 11 -49 23 -92 35 -85 23z"/>
<path d="M3852 1545 c13 -13 180 -63 193 -58 28 10 15 20 -42 32 -32 7 -71 17
-87 22 -31 10 -73 12 -64 4z"/>
<path d="M4034 1535 c11 -8 27 -15 35 -15 10 1 7 6 -9 15 -33 19 -50 18 -26 0z"/>
<path d="M3440 1525 c0 -8 91 -58 96 -52 7 7 -67 57 -83 57 -7 0 -13 -2 -13
-5z"/>
</g>
</svg>
