<?xml version="1.0" standalone="no"?>
<!DOCTYPE svg PUBLIC "-//W3C//DTD SVG 20010904//EN"
 "http://www.w3.org/TR/2001/REC-SVG-20010904/DTD/svg10.dtd">
<svg version="1.0" xmlns="http://www.w3.org/2000/svg"
 width="512.000000pt" height="512.000000pt" viewBox="0 0 512.000000 512.000000"
 preserveAspectRatio="xMidYMid meet">

<g transform="translate(0.000000,512.000000) scale(0.100000,-0.100000)"
fill="#000000" stroke="none">
<path d="M964 5036 c-17 -8 -43 -29 -57 -47 -25 -35 -63 -156 -90 -289 -9 -41
-20 -87 -26 -102 -7 -18 -7 -54 -1 -105 13 -114 49 -356 56 -373 15 -41 22
-163 13 -217 -5 -32 -10 -128 -9 -214 0 -121 -5 -191 -24 -310 -14 -85 -27
-207 -31 -271 -6 -128 -6 -127 -63 -249 -22 -46 -43 -95 -47 -109 -4 -14 -19
-47 -32 -73 -24 -48 -24 -53 -18 -208 6 -158 6 -159 -17 -182 -13 -13 -31 -26
-39 -29 -40 -15 19 -22 166 -22 113 0 161 -4 154 -11 -6 -6 -81 -10 -193 -10
l-184 0 23 -27 c13 -16 27 -38 31 -50 4 -13 12 -26 18 -31 8 -5 6 -12 -6 -21
-10 -7 -18 -21 -18 -30 0 -21 23 -46 42 -46 8 0 7 -4 -4 -11 -26 -15 -22 -34
9 -48 27 -12 27 -13 9 -27 -25 -18 -13 -31 17 -16 30 14 157 24 157 12 0 -6
-29 -10 -64 -10 -36 0 -67 -4 -70 -9 -4 -5 3 -7 14 -4 11 3 20 0 20 -6 0 -6
15 -11 33 -11 17 0 39 -5 47 -10 11 -7 4 -10 -27 -10 -32 0 -43 -4 -43 -15 0
-11 -12 -15 -44 -15 -25 0 -47 -4 -51 -9 -10 -18 30 -21 88 -7 31 7 57 9 57 5
0 -12 39 -11 76 0 32 10 106 23 87 14 -7 -2 -13 -11 -13 -19 0 -11 12 -13 58
-9 40 4 51 3 37 -4 -15 -7 -16 -10 -5 -11 34 -5 107 19 140 46 23 18 60 27 60
15 0 -6 -6 -11 -14 -11 -7 0 -25 -9 -39 -20 -14 -12 -41 -26 -59 -32 -18 -6
-42 -17 -52 -24 -17 -12 -15 -13 20 -7 21 3 64 12 94 20 30 9 73 18 95 22 43
6 47 18 12 39 -20 12 -20 12 -2 8 11 -3 68 -8 126 -11 93 -6 107 -5 112 9 5
12 14 15 32 10 46 -11 26 4 -27 21 -29 10 -57 22 -63 27 -12 11 76 3 124 -11
19 -6 36 -9 38 -8 7 8 -107 57 -133 58 -16 0 -38 4 -49 9 -16 7 -12 9 20 11
54 3 53 3 115 -19 69 -24 123 -35 115 -22 -3 5 -34 23 -70 41 -35 17 -72 40
-81 50 -17 19 -16 19 23 5 22 -8 54 -21 70 -29 16 -9 35 -12 42 -8 9 6 7 10
-8 14 -12 3 -21 10 -21 16 0 8 6 9 19 1 37 -19 33 9 -8 57 -42 50 -47 70 -8
37 12 -11 31 -26 42 -34 20 -15 20 -14 1 8 -26 30 -11 28 49 -8 28 -16 55 -30
60 -30 6 1 -7 11 -28 24 -21 13 -53 38 -70 56 l-32 33 27 -6 c14 -4 34 -10 45
-14 17 -6 17 -6 -1 15 l-18 21 38 -10 c22 -6 44 -16 49 -21 7 -8 5 -9 -7 -5
-10 4 -18 3 -18 -2 0 -14 144 0 156 15 15 19 48 18 41 0 -3 -8 2 -16 14 -19
10 -3 23 -16 28 -29 6 -12 10 -17 10 -10 1 7 5 11 10 8 5 -3 20 4 35 15 23 18
25 19 20 2 -4 -10 -13 -23 -21 -30 -9 -7 -11 -13 -4 -18 6 -3 18 1 27 9 8 9
24 16 35 16 10 0 19 6 19 14 0 8 14 24 30 36 17 12 30 30 30 40 0 12 5 17 14
14 11 -4 13 5 8 43 -3 26 -9 51 -15 54 -5 4 0 12 12 18 11 6 28 26 37 44 16
30 16 31 1 18 -10 -8 -17 -9 -17 -3 0 6 4 14 10 17 13 8 13 52 1 60 -6 3 -18
-5 -27 -18 l-18 -24 -32 32 c-36 36 -69 90 -41 67 13 -11 15 -10 11 10 -4 19
-2 18 12 -7 9 -16 25 -41 35 -54 24 -30 31 -14 27 55 -3 43 0 52 25 72 20 18
27 33 27 59 0 24 7 40 22 53 12 9 27 35 33 56 6 22 17 38 23 36 7 -1 12 5 12
14 0 9 6 28 13 42 64 127 82 160 85 158 1 -2 -8 -28 -21 -57 -25 -53 -67 -179
-67 -195 1 -14 40 39 40 54 0 18 29 71 51 95 10 12 19 16 19 10 0 -7 -6 -18
-14 -25 -7 -8 -16 -25 -20 -38 l-7 -25 20 25 c11 14 21 29 21 33 0 5 3 6 8 4
4 -3 7 8 7 23 0 15 -3 26 -7 23 -11 -6 -10 3 7 44 8 20 18 34 21 30 3 -3 1
-14 -5 -25 -21 -40 -10 -33 24 14 54 75 69 106 56 113 -7 5 0 22 20 50 34 46
45 49 29 7 -5 -15 -10 -35 -10 -44 1 -38 21 19 25 69 3 41 1 50 -11 45 -18 -7
-18 -3 6 44 23 46 40 59 40 32 0 -11 -7 -22 -15 -26 -17 -6 -21 -46 -4 -46 6
0 9 -7 6 -15 -4 -8 -2 -17 3 -20 5 -3 11 4 15 15 3 11 11 20 16 20 12 0 11 -7
-2 -32 -8 -16 -8 -22 2 -28 10 -7 10 -19 0 -62 -9 -36 -10 -61 -3 -78 10 -24
11 -23 23 22 7 26 16 45 21 42 12 -8 10 -173 -4 -210 -9 -26 -8 -39 5 -70 l16
-39 1 40 c2 36 8 46 62 93 33 30 62 51 65 49 2 -3 -16 -24 -41 -48 -43 -39
-45 -43 -32 -64 18 -27 34 -245 18 -245 -6 0 -13 10 -15 23 -2 12 -5 -11 -6
-52 -1 -62 1 -72 13 -62 11 9 15 9 19 -1 3 -7 6 1 8 17 2 30 2 30 8 -5 l7 -35
16 30 c22 39 22 31 0 -33 -23 -63 -35 -77 -32 -37 3 48 1 50 -23 14 -18 -26
-22 -44 -19 -73 3 -28 1 -37 -7 -31 -9 5 -11 -5 -7 -35 3 -28 1 -47 -8 -56 -8
-7 -16 -11 -19 -8 -2 3 -1 -15 3 -38 10 -51 4 -61 -17 -33 -16 20 -16 20 -8 0
4 -11 9 -29 12 -40 4 -16 3 -17 -6 -5 -5 8 -14 11 -18 6 -12 -12 28 -37 49
-30 10 3 18 0 18 -6 0 -6 -4 -8 -10 -5 -19 12 -10 -18 13 -39 13 -12 21 -29
19 -41 -4 -17 -3 -18 13 -5 16 14 17 13 11 -7 -8 -24 12 -43 24 -23 5 8 9 7
14 -6 6 -16 8 -16 21 2 12 17 14 17 15 2 0 -9 6 -19 13 -21 7 -3 4 -6 -7 -6
-15 -1 -16 -4 -6 -16 11 -13 15 -11 32 10 11 14 28 25 38 25 23 0 42 -23 34
-43 -4 -12 10 -24 58 -46 34 -16 72 -33 83 -37 18 -6 17 -8 -9 -13 -28 -6 -27
-6 20 -26 l49 -20 -40 -6 c-33 -5 -26 -7 35 -9 l75 -3 -60 -12 c-33 -7 -49
-13 -35 -14 l25 -2 -24 -13 c-18 -10 -20 -15 -10 -19 8 -3 3 -6 -11 -6 -22 -1
-20 -4 15 -20 24 -12 33 -20 22 -20 -39 -2 -3 -21 41 -22 26 0 67 -4 92 -8
l45 -7 -45 -13 c-40 -12 -72 -11 -140 5 -23 5 -24 5 -5 -7 11 -7 22 -16 25
-20 3 -5 40 -24 83 -43 42 -20 77 -40 77 -45 0 -5 13 -12 30 -16 16 -4 32 -11
35 -16 9 -14 -28 -11 -50 4 -12 8 -30 11 -45 7 -23 -6 -22 -7 12 -14 21 -4 40
-12 44 -18 5 -8 -19 -9 -85 -6 -77 5 -89 3 -73 -7 20 -15 117 -42 172 -48 19
-2 42 -7 50 -11 80 -33 128 -34 151 -2 4 5 20 4 38 -2 17 -6 31 -7 31 -2 0 5
-9 12 -20 15 -11 4 -18 11 -15 16 9 14 50 11 95 -7 50 -20 64 -13 17 9 -41 20
-77 57 -56 57 8 0 20 -5 26 -11 13 -13 70 -27 142 -34 30 -3 62 -10 72 -15 38
-21 57 -7 36 26 -8 14 -105 39 -114 30 -3 -3 8 -9 26 -12 17 -4 33 -10 36 -14
7 -11 -58 -5 -82 8 -12 7 -29 12 -37 12 -9 0 -16 5 -16 10 0 6 5 10 12 10 6 0
-1 14 -17 30 -16 17 -34 30 -41 30 -7 0 -15 4 -19 9 -7 12 36 0 85 -23 19 -9
27 -14 18 -11 -10 2 -18 0 -18 -4 0 -14 32 -25 75 -27 22 -1 68 -4 103 -8 42
-4 62 -2 62 5 0 6 -9 9 -20 6 -22 -6 -205 51 -196 61 6 5 94 -12 150 -29 16
-5 38 -9 50 -9 18 1 17 3 -7 16 -35 19 -30 29 7 13 33 -16 38 -10 44 51 3 37
0 55 -11 68 -42 46 -23 122 36 147 18 7 82 16 142 21 l110 8 -100 13 c-161 20
-235 34 -235 44 0 9 24 7 140 -11 74 -12 236 -24 230 -17 -3 3 -48 10 -102 16
-114 13 -128 17 -128 41 0 10 27 71 60 137 98 195 116 321 84 588 -32 269 -3
570 70 712 13 27 36 77 50 112 14 35 47 99 72 143 25 43 66 131 91 196 95 249
119 422 74 540 -13 34 -32 67 -41 72 -33 18 -180 -7 -291 -49 -202 -76 -240
-91 -307 -125 -85 -42 -151 -63 -227 -71 -33 -3 -107 -18 -165 -31 -109 -27
-183 -28 -245 -4 -31 12 -179 14 -275 4 -60 -6 -193 15 -292 47 -33 10 -89 21
-126 25 -37 3 -98 12 -136 20 -39 8 -87 12 -110 9 -22 -4 -54 -1 -70 5 -17 6
-62 15 -102 20 -260 33 -697 290 -834 489 -21 31 -51 68 -66 82 -27 25 -183
119 -198 119 -3 0 -42 18 -85 39 -103 51 -110 53 -147 37z m241 -516 c-3 -6
-21 -17 -38 -26 -36 -19 -31 -9 10 17 34 21 36 22 28 9z m47 -30 c-18 -17 -37
-30 -42 -30 -17 0 -11 20 8 27 9 4 21 12 25 20 4 7 16 13 25 13 13 -1 9 -8
-16 -30z m-70 -47 c19 5 19 5 1 -15 -18 -21 -18 -21 12 -14 16 4 33 12 36 18
5 8 13 6 24 -5 9 -10 13 -17 8 -18 -4 -1 3 -5 17 -9 21 -7 19 -8 -17 -9 -31
-1 -46 -7 -58 -23 -13 -20 -14 -23 -1 -26 8 -2 26 4 41 14 14 9 28 14 32 10 3
-3 0 -6 -8 -6 -8 -1 2 -9 21 -20 l35 -19 -32 -1 c-27 0 -59 -19 -36 -21 4 0
21 -3 36 -5 16 -3 34 0 41 5 13 11 56 4 56 -9 0 -11 -95 -22 -125 -14 -14 3
-25 10 -25 15 0 5 -17 9 -37 9 -42 1 -114 28 -78 29 39 2 64 51 27 51 -11 0
-34 8 -53 17 -31 16 -32 18 -11 21 18 3 21 8 16 29 l-7 25 33 -17 c18 -9 41
-14 52 -12z m113 7 c-3 -5 -14 -10 -23 -10 -15 0 -15 2 -2 10 20 13 33 13 25
0z m48 -57 c-7 -2 -19 -2 -25 0 -7 3 -2 5 12 5 14 0 19 -2 13 -5z m-189 -124
c5 7 15 7 33 0 15 -5 52 -12 82 -15 96 -8 121 -14 121 -29 0 -8 -4 -15 -10
-15 -5 0 -10 4 -10 10 0 6 -35 9 -87 8 -65 -1 -96 3 -119 15 -24 12 -48 15
-105 11 -89 -6 -84 10 6 24 47 7 62 6 72 -5 7 -9 13 -10 17 -4z m81 -86 c24
-12 31 -19 23 -25 -9 -5 -3 -8 14 -8 14 0 28 5 30 10 2 6 22 8 51 4 54 -8 45
-24 -12 -24 -27 0 -32 -3 -23 -12 22 -22 13 -27 -39 -22 -30 3 -56 0 -64 -6
-10 -8 -28 -8 -69 2 -62 14 -73 27 -23 29 30 1 30 2 -8 8 -22 4 -49 12 -60 19
-17 10 -13 11 29 12 39 0 47 3 42 15 -8 21 63 20 109 -2z m3206 -33 c5 0 9
-13 9 -29 0 -17 5 -33 10 -36 6 -3 10 -14 9 -23 0 -9 -8 0 -18 20 -10 21 -26
47 -37 59 -18 21 -18 22 -1 16 10 -4 23 -7 28 -7z m-3045 -45 c-16 -17 -46
-20 -46 -6 0 11 18 19 43 20 16 1 17 -1 3 -14z m3008 -1 c9 -8 17 -25 18 -37
4 -58 2 -87 -4 -87 -3 0 -8 -7 -10 -15 -2 -9 -12 5 -24 30 l-21 46 24 -23 23
-22 -6 35 c-4 19 -13 46 -21 62 -15 30 -3 36 21 11z m141 -15 c6 -19 0 -38 -9
-28 -10 12 -16 49 -7 49 5 0 13 -9 16 -21z m-3310 -9 c3 -5 -1 -10 -9 -10 -9
0 -16 5 -16 10 0 6 4 10 9 10 6 0 13 -4 16 -10z m3016 -7 c13 -15 12 -15 -8
-4 -24 12 -29 21 -14 21 5 0 15 -7 22 -17z m-2981 -3 c0 -5 -2 -10 -4 -10 -3
0 -8 5 -11 10 -3 6 -1 10 4 10 6 0 11 -4 11 -10z m106 -15 c-22 -17 -45 -19
-73 -7 -17 6 -1 10 82 20 6 1 1 -5 -9 -13z m-146 -4 c0 -5 -7 -12 -16 -15 -14
-5 -15 -4 -4 9 14 17 20 19 20 6z m3091 -34 c41 -52 44 -64 8 -32 -38 33 -49
46 -49 58 0 16 16 6 41 -26z m159 -35 c-7 -13 -9 -8 -9 23 0 35 1 37 10 17 6
-15 5 -30 -1 -40z m-278 1 c18 -16 26 -49 9 -39 -17 11 -6 -52 13 -73 11 -12
14 -21 8 -21 -7 0 -12 -7 -12 -16 0 -8 -4 -12 -10 -9 -5 3 -10 14 -10 25 0 10
-16 32 -35 49 -19 17 -35 35 -35 41 0 16 10 12 30 -12 10 -13 22 -20 26 -16 4
4 2 13 -4 20 -10 12 -12 68 -3 68 3 0 13 -7 23 -17z m-2827 -27 c-11 -8 -23
-12 -28 -9 -13 8 3 23 26 23 20 0 20 0 2 -14z m-45 -15 c0 -5 -16 -11 -36 -13
-32 -4 -34 -3 -18 9 20 15 54 17 54 4z m150 -23 c0 -12 -6 -9 -26 13 -19 22
-19 22 4 8 12 -8 22 -17 22 -21z m2579 5 c6 -10 11 -15 11 -11 0 8 29 -14 64
-48 37 -37 117 -94 132 -94 13 0 13 2 0 16 -35 34 -3 23 42 -15 28 -24 28 -31
1 -31 -18 0 -19 -2 -9 -15 11 -13 10 -14 -11 -5 -13 6 -32 13 -41 16 -10 4
-18 10 -18 14 0 4 -14 7 -31 8 -17 0 -46 12 -65 27 -26 20 -34 22 -34 11 0 -9
5 -16 11 -16 6 0 9 -6 6 -12 -2 -7 0 -21 5 -31 7 -14 13 -16 23 -7 18 15 39 1
116 -72 66 -63 70 -76 9 -28 -21 17 -42 30 -46 30 -5 0 -20 12 -33 25 -23 25
-41 32 -41 17 0 -12 54 -62 68 -62 7 0 12 -7 12 -17 0 -15 -1 -15 -18 0 -10
10 -24 17 -31 17 -15 0 -50 40 -51 58 0 6 -4 12 -10 12 -5 0 -19 10 -30 22
-19 21 -19 23 -3 29 15 5 14 6 -5 11 -12 4 -20 2 -16 -3 3 -5 -1 -9 -9 -9 -24
0 -38 46 -27 93 5 24 7 53 3 65 -6 26 12 30 26 5z m-2504 -93 c10 -11 16 -20
13 -20 -3 0 -13 9 -23 20 -10 11 -16 20 -13 20 3 0 13 -9 23 -20z m2426 -10
c-13 -11 -28 -20 -35 -20 -6 0 3 9 19 20 38 25 47 25 16 0z m-2297 -169 c101
-150 366 -654 352 -668 -5 -6 -40 55 -95 162 -22 44 -40 77 -41 72 0 -4 25
-64 56 -135 65 -148 75 -183 40 -127 -14 22 -53 110 -87 195 -33 85 -81 193
-105 239 -24 45 -41 88 -37 94 3 5 1 7 -5 3 -6 -3 -21 8 -33 26 -13 18 -59 71
-103 117 l-81 85 68 -58 c37 -32 67 -61 67 -65 1 -3 19 -26 41 -51 39 -43 40
-44 24 -11 -14 29 -82 132 -163 251 -16 24 -16 24 0 11 10 -7 56 -70 102 -140z
m2246 135 c0 -2 -20 -16 -45 -32 -25 -15 -45 -32 -45 -36 0 -4 -6 -8 -12 -8
-24 0 -148 -101 -245 -198 -109 -110 -219 -253 -355 -462 -52 -80 -103 -152
-113 -160 -17 -14 -17 -14 -6 9 30 56 209 323 269 401 126 164 290 328 397
396 16 10 38 26 48 34 15 13 97 60 104 60 2 0 3 -2 3 -4z m43 -37 c12 -7 26
-18 30 -26 5 -7 13 -11 18 -8 5 4 7 10 4 15 -3 4 1 10 9 13 17 7 31 -24 15
-33 -23 -15 -3 -45 46 -69 28 -13 64 -41 80 -62 27 -34 35 -38 80 -40 41 -2
44 -3 15 -6 -19 -3 -38 -10 -42 -16 -6 -9 -12 -9 -28 1 -11 6 -28 12 -37 11
-13 0 -14 -2 -4 -6 19 -8 51 -41 51 -53 0 -6 -11 -3 -25 6 -26 17 -30 13 -26
-28 2 -16 0 -16 -21 2 -13 11 -34 29 -48 40 -20 16 -21 19 -5 13 11 -3 17 -3
13 2 -4 4 -23 9 -42 10 -19 2 -52 15 -73 29 -34 24 -35 26 -13 26 l24 0 -30
31 c-16 17 -45 37 -64 45 -33 14 -50 30 -50 48 0 13 48 -2 92 -30 22 -14 54
-27 71 -30 l30 -3 -22 22 c-11 13 -21 27 -21 32 0 5 -14 24 -32 42 -33 34 -32
41 5 22z m-3 -65 c17 -15 28 -29 25 -32 -3 -3 -15 4 -28 15 -12 11 -31 25 -42
31 -16 9 -17 11 -3 12 9 0 31 -12 48 -26z m-83 -69 c8 -8 19 -13 24 -10 5 4 9
2 9 -4 0 -28 -53 -15 -64 16 -7 18 12 16 31 -2z m69 -93 c7 -19 26 -36 59 -51
26 -12 45 -24 42 -27 -3 -3 -33 8 -67 25 -73 37 -91 34 -226 -28 -212 -99
-354 -233 -526 -496 -54 -81 -94 -132 -101 -125 -8 10 203 307 272 382 121
130 270 228 440 287 57 20 76 31 75 44 -3 27 21 20 32 -11z m120 -137 c10 -8
14 -15 8 -15 -5 0 -19 7 -30 15 -10 8 -14 15 -8 15 5 0 19 -7 30 -15z m-825
-218 c-10 -9 -11 -8 -5 6 3 10 9 15 12 12 3 -3 0 -11 -7 -18z m-1187 -102 c28
-88 27 -112 -2 -44 -18 41 -39 139 -28 128 3 -2 16 -40 30 -84z m474 31 c-12
-25 -26 -46 -30 -46 -5 0 3 23 18 51 14 28 27 49 30 46 3 -2 -5 -25 -18 -51z
m691 32 c-37 -71 -151 -258 -161 -264 -20 -13 0 25 84 158 74 117 106 162 77
106z m-783 -77 c-20 -39 -39 -51 -26 -17 14 37 34 68 38 57 2 -5 -4 -23 -12
-40z m331 -117 c-14 -93 -21 -64 -12 44 6 67 10 80 15 56 4 -17 2 -62 -3 -100z
m-393 9 c-17 -42 -34 -64 -34 -45 0 17 33 82 41 82 5 0 1 -17 -7 -37z m-280 1
c3 -8 2 -12 -4 -9 -6 3 -10 10 -10 16 0 14 7 11 14 -7z m176 -31 c-1 -22 -15
-91 -25 -118 -7 -20 -6 -20 9 -1 16 19 16 19 16 -5 l0 -24 21 25 21 25 -7 -29
c-11 -52 -34 -96 -48 -96 -9 0 -19 -18 -26 -47 -9 -32 -15 -43 -21 -34 -6 11
-9 10 -14 -5 -3 -10 -4 8 -1 40 2 32 8 63 14 69 6 6 8 -6 5 -34 l-4 -44 14 40
c18 49 20 87 6 101 -8 8 -8 19 -1 35 5 13 13 45 16 72 6 44 26 68 25 30z
m-300 -54 c15 -28 5 -23 -15 7 -9 15 -12 23 -6 20 6 -4 16 -16 21 -27z m-774
-18 c-10 -15 -96 -63 -108 -59 -6 2 16 18 48 36 66 35 68 36 60 23z m959 -41
c-4 -23 -9 -39 -12 -36 -3 2 -2 23 2 46 4 23 9 39 12 36 3 -2 2 -23 -2 -46z
m1455 40 c-20 -13 -33 -13 -25 0 3 6 14 10 23 10 15 0 15 -2 2 -10z m-2043
-66 c-3 -3 -12 -4 -19 -1 -8 3 -5 6 6 6 11 1 17 -2 13 -5z m1317 -139 c3 -16
3 -24 0 -17 -3 6 -9 10 -14 7 -4 -3 -11 7 -16 23 -8 31 -8 33 2 87 l8 40 7
-55 c3 -30 9 -68 13 -85z m-709 46 c-4 -34 -11 -61 -15 -61 -8 0 -4 57 6 109
10 46 16 11 9 -48z m-401 4 c32 -29 36 -56 4 -29 -39 33 -48 42 -48 48 0 13
18 5 44 -19z m1175 -31 c-13 -47 -34 -74 -23 -29 10 44 24 78 29 73 2 -2 0
-22 -6 -44z m774 39 c-7 -2 -19 -2 -25 0 -7 3 -2 5 12 5 14 0 19 -2 13 -5z
m-140 -10 c-7 -2 -21 -2 -30 0 -10 3 -4 5 12 5 17 0 24 -2 18 -5z m-134 -19
c2 -2 -7 -4 -22 -4 -14 0 -29 5 -32 10 -6 10 42 4 54 -6z m-289 -8 c0 -2 -7
-7 -16 -10 -8 -3 -12 -2 -9 4 6 10 25 14 25 6z m-1559 -53 c22 6 23 3 9 -23
-8 -14 -3 -25 20 -50 28 -30 39 -53 23 -47 -5 1 -8 -2 -8 -8 0 -5 3 -9 8 -7 4
1 6 -1 5 -5 -1 -5 4 -19 11 -32 9 -17 16 -20 24 -12 6 6 24 11 41 11 16 0 44
12 63 26 42 32 78 26 130 -19 25 -22 44 -31 63 -29 24 3 29 -1 35 -28 4 -18 3
-36 -1 -40 -14 -13 -134 -24 -134 -12 0 5 -28 12 -62 14 -43 3 -83 13 -123 33
-33 16 -64 31 -70 33 -5 3 4 -8 20 -24 17 -16 32 -29 33 -28 8 5 62 -19 62
-27 0 -13 -24 -11 -38 3 -6 6 -18 13 -27 14 -31 5 -169 117 -157 128 3 3 -4
17 -17 29 -24 26 -38 97 -19 97 6 0 8 -3 5 -6 -7 -8 3 -28 50 -103 40 -63 56
-62 20 1 -34 59 -50 118 -35 135 9 11 14 10 31 -8 11 -12 27 -19 38 -16z
m1796 31 c-3 -3 -12 -4 -19 -1 -8 3 -5 6 6 6 11 1 17 -2 13 -5z m-435 -36 c-8
-8 -9 -4 -5 13 4 13 8 18 11 10 2 -7 -1 -18 -6 -23z m865 26 c-3 -3 -12 -4
-19 -1 -8 3 -5 6 6 6 11 1 17 -2 13 -5z m-17 -34 c0 -5 -4 -10 -10 -10 -5 0
-10 5 -10 10 0 6 5 10 10 10 6 0 10 -4 10 -10z m-1683 -22 c-3 -8 -6 -5 -6 6
-1 11 2 17 5 13 3 -3 4 -12 1 -19z m45 -32 c1 -20 -2 -39 -5 -43 -4 -3 -7 15
-7 42 0 55 10 56 12 1z m1238 34 c11 -7 4 -10 -25 -9 -31 0 -36 2 -20 9 26 11
28 11 45 0z m44 -16 c26 -10 18 -23 -11 -20 -39 5 -40 5 -23 16 18 12 15 11
34 4z m63 -20 c-3 -3 -12 -4 -19 -1 -8 3 -5 6 6 6 11 1 17 -2 13 -5z m-57 -24
c0 -5 -12 -10 -27 -10 -22 0 -25 2 -13 10 20 13 40 13 40 0z m-530 -44 c-21
-35 -30 -43 -30 -28 0 14 41 74 47 69 3 -3 -5 -22 -17 -41z m453 17 c-7 -2
-19 -2 -25 0 -7 3 -2 5 12 5 14 0 19 -2 13 -5z m-490 -23 c-6 -22 -23 -38 -23
-21 0 17 12 41 20 41 5 0 6 -9 3 -20z m-64 -92 c1 -10 -3 -18 -9 -18 -5 0 -10
17 -9 38 0 30 2 33 9 17 5 -11 9 -28 9 -37z m-623 16 c-4 -9 -9 -15 -11 -12
-3 3 -3 13 1 22 4 9 9 15 11 12 3 -3 3 -13 -1 -22z m1484 -24 c0 -5 -4 -10
-10 -10 -5 0 -10 5 -10 10 0 6 5 10 10 10 6 0 10 -4 10 -10z m-1470 -6 c0 -8
-32 -33 -43 -34 -4 0 -2 9 5 20 12 19 38 28 38 14z m1193 -8 c24 -19 22 -26
-20 -73 -42 -45 -83 -74 -128 -92 l-30 -11 29 5 c41 8 124 64 168 113 21 23
41 42 45 42 4 0 2 -5 -5 -12 -7 -7 -12 -19 -12 -28 0 -9 -18 -33 -39 -54 -38
-37 -53 -48 -118 -82 -18 -10 -33 -24 -33 -31 0 -7 -2 -13 -4 -13 -2 0 -12 -3
-20 -6 -12 -4 -15 -2 -11 9 5 11 -7 15 -62 19 -74 6 -122 26 -115 47 3 9 -2
11 -16 7 -14 -5 -21 -1 -25 15 -9 34 3 49 44 55 21 4 36 10 33 15 -9 15 13 10
61 -13 38 -18 49 -20 65 -10 11 7 26 12 35 12 20 0 87 38 104 58 13 16 13 15
7 -2 -6 -17 -4 -17 11 -5 10 7 20 15 22 16 2 1 -2 9 -9 18 -15 18 -1 19 23 1z
m-589 -38 c3 -16 2 -28 -3 -28 -13 0 -24 37 -16 51 9 13 11 11 19 -23z m-1624
-8 c0 -5 -5 -10 -11 -10 -5 0 -7 5 -4 10 3 6 8 10 11 10 2 0 4 -4 4 -10z
m2503 -27 c-7 -2 -21 -2 -30 0 -10 3 -4 5 12 5 17 0 24 -2 18 -5z m-1663 -13
c0 -5 -2 -10 -4 -10 -3 0 -8 5 -11 10 -3 6 -1 10 4 10 6 0 11 -4 11 -10z m954
-31 c21 -35 17 -44 -18 -35 -25 6 -42 37 -31 56 11 18 30 10 49 -21z m-1029
11 c-3 -5 -10 -10 -16 -10 -5 0 -9 5 -9 10 0 6 7 10 16 10 8 0 12 -4 9 -10z
m125 -16 c0 -17 -24 -29 -39 -20 -6 4 -4 14 7 25 19 20 32 18 32 -5z m745 16
c3 -5 1 -10 -4 -10 -6 0 -11 5 -11 10 0 6 2 10 4 10 3 0 8 -4 11 -10z m845 0
c-20 -13 -40 -13 -40 0 0 6 12 10 28 10 21 0 24 -2 12 -10z m-889 -33 c-8 -8
-11 -7 -11 4 0 20 13 34 18 19 3 -7 -1 -17 -7 -23z m774 23 c-3 -5 -10 -10
-16 -10 -5 0 -9 5 -9 10 0 6 7 10 16 10 8 0 12 -4 9 -10z m-1830 -51 c16 -16
-20 -10 -41 7 -18 14 -18 15 6 8 14 -3 29 -10 35 -15z m-1110 1 c-3 -5 -14
-10 -23 -9 -14 0 -13 2 3 9 27 11 27 11 20 0z m682 -6 c-3 -3 -12 -4 -19 -1
-8 3 -5 6 6 6 11 1 17 -2 13 -5z m563 -24 c0 -5 -12 -10 -27 -9 -25 0 -26 1
-8 9 27 12 35 12 35 0z m1330 -50 c0 -12 -7 -20 -16 -20 -13 0 -14 3 -5 13 6
8 8 17 4 20 -3 4 -1 7 5 7 7 0 12 -9 12 -20z m-73 -26 c-9 -9 -28 6 -21 18 4
6 10 6 17 -1 6 -6 8 -13 4 -17z m-1514 -45 c-11 -4 -32 3 -55 20 -55 38 -46
45 17 14 43 -21 52 -29 38 -34z m1291 28 c6 -9 7 -19 3 -23 -9 -9 -37 15 -37
33 0 18 20 12 34 -10z m-2127 7 c-3 -3 -12 -4 -19 -1 -8 3 -5 6 6 6 11 1 17
-2 13 -5z m-57 -14 c-14 -4 -43 -8 -65 -8 l-40 1 35 7 c19 4 49 8 65 8 29 0
29 0 5 -8z m2135 0 c3 -5 1 -10 -4 -10 -6 0 -11 5 -11 10 0 6 2 10 4 10 3 0 8
-4 11 -10z m-1725 -65 c-14 -8 -34 -14 -45 -14 -15 0 -13 3 10 14 40 18 67 18
35 0z m-250 -14 c0 -5 -16 -11 -35 -13 -19 -2 -35 -1 -35 3 0 4 15 10 33 12
17 2 33 5 35 5 1 1 2 -2 2 -7z m2750 -1 c-14 -4 -36 -8 -50 -8 -23 -1 -23 0
-5 8 11 5 34 8 50 8 29 0 29 0 5 -8z m-2746 -39 c7 -11 -53 -21 -74 -12 -9 3
-2 8 20 12 19 4 38 7 42 8 4 0 9 -3 12 -8z m476 -35 c51 -13 96 -29 98 -36 4
-10 -2 -11 -19 -6 -60 19 -85 22 -100 13 -12 -7 -41 -2 -100 16 -46 15 -100
27 -119 28 -29 0 -32 2 -15 10 29 13 146 2 255 -25z m1953 20 c4 -10 1 -13 -9
-9 -15 6 -19 23 -5 23 5 0 11 -7 14 -14z m-2392 -41 c19 -8 27 -14 19 -14 -8
-1 -22 3 -29 8 -9 6 -22 6 -31 1 -9 -5 -25 -3 -40 6 -25 13 -25 13 11 14 20 0
52 -7 70 -15z m2319 -55 c11 -7 8 -8 -13 -6 -15 1 -30 6 -34 9 -10 11 30 8 47
-3z m90 -20 c0 -5 -4 -10 -10 -10 -5 0 -10 5 -10 10 0 6 5 10 10 10 6 0 10 -4
10 -10z m110 -14 c0 -2 -13 -6 -29 -8 -17 -2 -28 -1 -25 4 5 8 54 12 54 4z
m27 -22 c-3 -3 -12 -4 -19 -1 -8 3 -5 6 6 6 11 1 17 -2 13 -5z m-147 -54 c19
-12 -52 -12 -90 0 -20 6 -15 8 25 9 28 0 57 -4 65 -9z m70 -20 c0 -5 -7 -7
-15 -4 -8 4 -15 8 -15 10 0 2 7 4 15 4 8 0 15 -4 15 -10z m30 -100 c0 -7 -23
-10 -60 -9 -33 1 -60 5 -60 9 0 4 27 8 60 9 36 1 60 -3 60 -9z m-50 -35 c32
-18 5 -19 -35 0 -23 10 -25 13 -10 14 11 0 31 -6 45 -14z m123 -51 c21 -14 36
-28 33 -31 -5 -6 -96 44 -96 52 0 12 29 3 63 -21z"/>
<path d="M4052 3856 c-1 -34 3 -46 13 -46 8 0 15 7 15 15 0 13 4 14 21 5 18
-10 19 -9 11 7 -6 10 -21 28 -35 41 l-24 23 -1 -45z"/>
<path d="M4060 3614 c8 -8 30 -23 49 -32 20 -9 41 -18 46 -21 6 -2 4 3 -4 13
-12 15 -85 56 -99 56 -2 0 1 -7 8 -16z"/>
<path d="M4032 3544 c10 -10 20 -15 24 -12 3 4 -5 12 -18 18 -22 12 -22 12 -6
-6z"/>
<path d="M2679 3132 c-3 -20 -2 -29 4 -23 5 5 7 19 5 32 -3 20 -5 19 -9 -9z"/>
<path d="M2786 2852 c-7 -12 12 -88 20 -80 2 3 0 24 -4 49 -5 28 -11 39 -16
31z"/>
<path d="M2770 2771 c0 -6 4 -13 10 -16 6 -3 7 1 4 9 -7 18 -14 21 -14 7z"/>
<path d="M2806 2722 c-3 -5 -1 -22 4 -38 8 -29 8 -29 9 9 1 36 -3 45 -13 29z"/>
<path d="M2291 2653 c-10 -26 -10 -27 4 -9 8 11 15 23 15 28 0 15 -7 8 -19
-19z"/>
<path d="M2232 2512 c-11 -25 -11 -25 4 -10 9 9 15 21 13 27 -2 6 -10 -2 -17
-17z"/>
<path d="M15 2480 c10 -11 20 -20 23 -20 3 0 -3 9 -13 20 -10 11 -20 20 -23
20 -3 0 3 -9 13 -20z"/>
<path d="M2776 2464 c-4 -9 -4 -19 -1 -22 2 -3 7 3 11 12 4 9 4 19 1 22 -2 3
-7 -3 -11 -12z"/>
<path d="M2756 2301 c-4 -7 -5 -15 -2 -18 9 -9 19 4 14 18 -4 11 -6 11 -12 0z"/>
<path d="M2730 2262 c0 -5 6 -17 14 -27 13 -18 14 -18 9 8 -5 24 -23 39 -23
19z"/>
<path d="M1820 2100 c-23 -7 -22 -8 13 -15 21 -4 41 -5 44 -1 4 3 -1 6 -9 6
-9 0 -18 4 -20 8 -1 5 -14 5 -28 2z"/>
<path d="M1915 2100 c-4 -6 2 -9 14 -7 29 4 39 17 13 17 -11 0 -24 -5 -27 -10z"/>
<path d="M1975 2050 c-4 -6 -10 -8 -15 -5 -4 3 -19 1 -32 -5 -19 -8 -16 -8 16
-5 36 4 77 25 49 25 -7 0 -15 -5 -18 -10z"/>
<path d="M668 1863 c7 -3 16 -2 19 1 4 3 -2 6 -13 5 -11 0 -14 -3 -6 -6z"/>
<path d="M4483 1853 c9 -2 23 -2 30 0 6 3 -1 5 -18 5 -16 0 -22 -2 -12 -5z"/>
<path d="M4548 1843 c6 -2 18 -2 25 0 6 3 1 5 -13 5 -14 0 -19 -2 -12 -5z"/>
<path d="M4608 1833 c7 -3 16 -2 19 1 4 3 -2 6 -13 5 -11 0 -14 -3 -6 -6z"/>
<path d="M1293 1791 c-10 -17 -8 -19 19 -25 17 -3 44 -6 61 -6 l30 0 -27 25
c-32 30 -67 32 -83 6z"/>
<path d="M4588 1803 c7 -3 16 -2 19 1 4 3 -2 6 -13 5 -11 0 -14 -3 -6 -6z"/>
<path d="M4638 1793 c7 -3 16 -2 19 1 4 3 -2 6 -13 5 -11 0 -14 -3 -6 -6z"/>
<path d="M3085 1780 c3 -5 10 -10 16 -10 5 0 9 5 9 10 0 6 -7 10 -16 10 -8 0
-12 -4 -9 -10z"/>
<path d="M4874 1744 c37 -19 70 -33 73 -31 5 6 -119 67 -133 67 -5 -1 22 -17
60 -36z"/>
<path d="M680 1750 c-9 -6 -10 -10 -3 -10 6 0 15 5 18 10 8 12 4 12 -15 0z"/>
<path d="M745 1742 c-54 -4 -64 -17 -27 -36 19 -10 33 -12 37 -6 3 6 -2 11
-12 11 -10 1 2 5 27 9 25 5 61 6 80 3 25 -3 40 0 48 10 11 13 4 15 -50 13 -35
0 -81 -2 -103 -4z"/>
<path d="M1358 1733 c6 -2 18 -2 25 0 6 3 1 5 -13 5 -14 0 -19 -2 -12 -5z"/>
<path d="M3148 1733 c7 -3 16 -2 19 1 4 3 -2 6 -13 5 -11 0 -14 -3 -6 -6z"/>
<path d="M785 1680 c-13 -5 -14 -9 -5 -9 8 0 24 4 35 9 13 5 14 9 5 9 -8 0
-24 -4 -35 -9z"/>
<path d="M718 1663 c7 -3 16 -2 19 1 4 3 -2 6 -13 5 -11 0 -14 -3 -6 -6z"/>
<path d="M755 1620 c-8 -13 25 -13 45 0 12 8 9 10 -12 10 -15 0 -30 -4 -33
-10z"/>
<path d="M2239 1560 l-24 -20 63 -58 c47 -43 62 -64 62 -85 0 -15 11 -45 25
-67 14 -22 25 -44 25 -50 0 -15 6 -13 37 18 92 86 145 132 156 132 7 0 23 9
37 20 24 19 24 19 2 13 -21 -5 -22 -4 -7 23 8 16 15 34 15 40 0 21 -66 26
-110 8 -36 -14 -49 -15 -96 -5 -30 7 -54 16 -54 21 0 5 -7 7 -15 4 -8 -4 -17
1 -21 10 -9 23 -67 20 -95 -4z"/>
<path d="M3280 1520 c0 -14 25 -18 37 -5 9 10 6 13 -13 13 -13 0 -24 -4 -24
-8z"/>
<path d="M3910 1385 c14 -8 38 -14 54 -15 28 0 29 1 10 15 -10 8 -35 14 -54
14 l-35 0 25 -14z"/>
<path d="M3870 1387 c0 -6 79 -57 87 -57 5 0 -1 8 -12 16 -24 19 -75 46 -75
41z"/>
<path d="M3330 1371 c12 -9 11 -11 -9 -11 -13 0 -22 -2 -19 -5 6 -7 158 -17
158 -11 0 2 -26 10 -57 16 -32 7 -64 14 -73 17 -13 4 -13 4 0 -6z"/>
<path d="M3658 1363 c7 -3 16 -2 19 1 4 3 -2 6 -13 5 -11 0 -14 -3 -6 -6z"/>
<path d="M3850 1346 c0 -2 11 -6 25 -8 13 -3 22 -1 19 3 -5 9 -44 13 -44 5z"/>
<path d="M3465 1331 c-4 -7 0 -8 11 -4 11 4 15 3 10 -5 -10 -17 7 -22 22 -6 7
8 8 14 3 14 -5 0 -16 3 -24 6 -8 3 -18 1 -22 -5z"/>
<path d="M3332 1318 c5 -15 28 -18 29 -3 0 6 -7 12 -17 13 -10 3 -15 -1 -12
-10z"/>
<path d="M3397 1313 c5 -12 7 -12 14 -1 7 10 9 10 9 1 0 -7 5 -13 11 -13 20 0
2 25 -18 26 -15 1 -20 -3 -16 -13z"/>
<path d="M3835 1314 c34 -15 94 -19 80 -5 -6 5 -32 11 -60 13 -48 5 -49 5 -20
-8z"/>
<path d="M3790 1290 c8 -5 29 -10 45 -10 23 0 27 3 15 10 -8 5 -28 10 -45 10
-23 0 -27 -3 -15 -10z"/>
<path d="M3350 1275 c0 -18 -16 -20 -23 -2 -4 7 -6 6 -6 -4 -1 -11 9 -19 26
-22 34 -6 51 3 29 15 -9 5 -14 13 -11 19 4 5 1 9 -4 9 -6 0 -11 -7 -11 -15z"/>
<path d="M3381 1286 c2 -2 15 -9 29 -15 24 -11 24 -11 6 3 -16 13 -49 24 -35
12z"/>
<path d="M3278 1263 c7 -3 16 -2 19 1 4 3 -2 6 -13 5 -11 0 -14 -3 -6 -6z"/>
<path d="M3761 1246 c2 -2 20 -11 39 -20 l35 -17 -24 21 c-13 11 -30 20 -39
20 -8 0 -13 -2 -11 -4z"/>
<path d="M3379 1200 c24 -11 46 -18 49 -15 5 5 -26 18 -68 29 -14 3 -5 -3 19
-14z"/>
<path d="M3319 1180 c24 -11 46 -18 48 -16 7 7 -54 36 -74 36 -10 0 2 -9 26
-20z"/>
<path d="M3690 1180 c0 -5 18 -13 40 -16 22 -4 40 -10 40 -14 0 -5 -10 -6 -22
-4 -21 4 -21 4 -3 -4 27 -12 67 -10 72 4 2 6 -12 19 -31 28 -38 18 -96 22 -96
6z"/>
<path d="M3210 1171 c-23 -7 -22 -9 30 -36 30 -15 49 -21 42 -13 -14 18 -6 28
16 22 10 -3 1 4 -18 15 -39 22 -35 22 -70 12z"/>
<path d="M2339 1135 c0 -11 -3 -15 -5 -9 -5 12 -54 6 -54 -6 0 -5 -3 -16 -7
-26 -5 -13 -3 -15 8 -8 8 5 16 9 19 10 27 5 60 17 60 23 0 3 -5 13 -10 21 -8
12 -10 12 -11 -5z"/>
<path d="M2245 1130 c-3 -5 -1 -10 4 -10 6 0 11 5 11 10 0 6 -2 10 -4 10 -3 0
-8 -4 -11 -10z"/>
<path d="M3153 1116 c7 -14 27 -32 45 -40 18 -9 31 -12 28 -7 -4 5 -1 11 5 13
12 4 -63 58 -80 58 -5 0 -4 -11 2 -24z"/>
<path d="M2405 1100 c-3 -5 -1 -10 4 -10 6 0 11 5 11 10 0 6 -2 10 -4 10 -3 0
-8 -4 -11 -10z"/>
<path d="M2497 1084 c-8 -8 1 -24 14 -24 5 0 9 7 9 15 0 15 -12 20 -23 9z"/>
<path d="M3668 1073 c6 -2 18 -2 25 0 6 3 1 5 -13 5 -14 0 -19 -2 -12 -5z"/>
<path d="M3515 1060 c9 -14 65 -42 65 -32 0 8 -52 42 -65 42 -3 0 -3 -5 0 -10z"/>
<path d="M3605 1060 c3 -5 13 -10 21 -10 8 0 12 5 9 10 -3 6 -13 10 -21 10 -8
0 -12 -4 -9 -10z"/>
<path d="M1610 1040 c-14 -11 -31 -20 -38 -20 -8 0 -12 -5 -10 -12 8 -24 26
-18 52 17 31 40 31 42 -4 15z"/>
<path d="M2546 1052 c-3 -6 -1 -14 5 -17 15 -10 25 3 12 16 -7 7 -13 7 -17 1z"/>
<path d="M3090 1056 c0 -2 16 -13 35 -25 25 -14 35 -17 35 -7 0 7 -11 18 -25
24 -26 12 -45 15 -45 8z"/>
<path d="M2620 1034 c0 -10 4 -25 9 -32 7 -11 9 -11 13 0 3 8 0 22 -8 33 -14
18 -14 18 -14 -1z"/>
<path d="M3055 1030 c-4 -6 -3 -9 2 -8 4 2 24 -13 43 -33 19 -19 26 -25 16
-12 -18 22 -12 32 10 16 5 -5 -4 4 -21 19 -33 30 -41 33 -50 18z"/>
<path d="M1686 993 c-40 -42 -48 -68 -16 -58 14 5 20 2 20 -9 0 -9 6 -16 13
-16 8 0 14 12 14 30 0 16 -4 27 -9 24 -12 -8 -10 3 7 36 20 39 15 38 -29 -7z"/>
<path d="M3014 1001 c16 -17 32 -29 34 -26 7 7 -18 34 -42 47 -16 8 -14 3 8
-21z"/>
<path d="M2950 1003 c0 -10 8 -28 18 -40 l17 -23 0 28 c0 30 -11 52 -26 52 -5
0 -9 -8 -9 -17z"/>
<path d="M1594 986 c-10 -8 -16 -17 -13 -20 3 -3 14 3 24 14 21 23 17 26 -11
6z"/>
<path d="M3500 996 c0 -2 7 -7 16 -10 8 -3 12 -2 9 4 -6 10 -25 14 -25 6z"/>
<path d="M3420 951 c0 -12 28 -22 35 -12 3 5 -2 12 -11 15 -21 8 -24 8 -24 -3z"/>
<path d="M1754 925 c-17 -26 -14 -42 6 -30 6 4 9 13 6 20 -2 7 1 18 7 24 6 6
8 11 4 11 -3 0 -14 -11 -23 -25z"/>
<path d="M1782 905 c-14 -31 -15 -35 -3 -35 8 0 23 51 17 58 -2 1 -8 -9 -14
-23z"/>
<path d="M3203 922 c-13 -2 -23 -7 -23 -12 0 -17 45 -40 79 -40 34 0 34 0 15
21 -25 27 -44 36 -71 31z"/>
<path d="M3051 915 c1 -5 1 -18 0 -29 -1 -16 -3 -17 -18 -5 -12 10 -10 4 5
-18 16 -22 28 -30 42 -26 31 8 31 15 -1 53 -16 19 -29 31 -28 25z"/>
<path d="M3099 903 c24 -41 28 -44 55 -37 26 6 26 7 10 25 -9 10 -20 16 -25
13 -5 -3 -18 0 -30 6 -18 10 -19 10 -10 -7z"/>
<path d="M3315 900 c3 -5 11 -10 16 -10 6 0 7 5 4 10 -3 6 -11 10 -16 10 -6 0
-7 -4 -4 -10z"/>
<path d="M1921 871 c-1 -24 2 -32 9 -25 7 7 7 19 1 35 -9 23 -10 22 -10 -10z"/>
<path d="M1826 874 c-4 -9 -5 -18 -4 -19 7 -7 35 -7 50 -1 15 7 15 10 3 22
-18 19 -41 18 -49 -2z"/>
<path d="M1972 878 c-20 -20 -14 -55 10 -62 17 -4 31 3 55 26 18 18 33 37 33
42 0 6 -7 3 -15 -7 -14 -19 -55 -16 -55 4 0 13 -14 11 -28 -3z"/>
<path d="M2086 861 c-10 -11 -16 -26 -14 -33 3 -8 12 0 22 20 19 37 17 40 -8
13z"/>
<path d="M2122 847 c-33 -35 -28 -48 15 -44 20 2 39 9 41 16 2 6 -1 11 -7 11
-7 0 -15 9 -19 20 -8 21 -8 20 -30 -3z"/>
<path d="M2964 849 c-7 -12 12 -29 34 -29 19 0 14 18 -7 30 -14 7 -22 7 -27
-1z"/>
<path d="M2660 840 c0 -5 -7 -10 -15 -10 -19 0 -20 -34 -1 -49 8 -7 25 -9 40
-5 21 5 25 10 20 27 -11 33 -44 61 -44 37z"/>
<path d="M2195 830 c-10 -16 5 -32 25 -27 9 2 24 0 33 -5 11 -6 25 -5 39 3 21
11 21 12 3 25 -12 9 -22 10 -30 4 -6 -5 -16 -5 -25 0 -20 13 -37 12 -45 0z"/>
<path d="M2761 819 c-11 -18 -15 -19 -23 -8 -7 11 -8 10 -6 -5 4 -28 25 -31
38 -6 16 29 8 45 -9 19z"/>
<path d="M2880 825 c0 -8 4 -15 10 -15 5 0 7 7 4 15 -4 8 -8 15 -10 15 -2 0
-4 -7 -4 -15z"/>
<path d="M2915 831 c-3 -5 -1 -12 5 -16 5 -3 10 1 10 9 0 18 -6 21 -15 7z"/>
<path d="M2040 815 c0 -8 2 -15 4 -15 2 0 6 7 10 15 3 8 1 15 -4 15 -6 0 -10
-7 -10 -15z"/>
<path d="M2510 816 c0 -8 -6 -17 -12 -19 -20 -8 12 -27 45 -27 37 0 38 36 1
50 -33 13 -34 13 -34 -4z"/>
<path d="M2820 806 c0 -22 3 -27 11 -19 8 8 8 16 0 30 -9 16 -10 14 -11 -11z"/>
<path d="M2590 809 c0 -8 7 -24 15 -35 19 -25 19 -14 0 22 -8 16 -15 22 -15
13z"/>
<path d="M2791 794 c0 -11 3 -14 6 -6 3 7 2 16 -1 19 -3 4 -6 -2 -5 -13z"/>
</g>
</svg>
